<svg width="852" height="132" viewBox="0 0 852 132" xmlns="http://www.w3.org/2000/svg">
    <style>
        .cell { rx: 3; ry: 3; stroke: rgba(255,255,255,0.05); stroke-width: 1; transform-origin: center; transform-box: fill-box; }
        
        /* Strict Color Palette (No Black/White) */
        .lvl-0 { fill: #5c4033; } /* Brown */
        .lvl-1 { fill: #2ea043; } /* Green */
        .lvl-2 { fill: #e3b341; } /* Yellow */
        .lvl-3 { fill: #388bfd; } /* Blue */
        
        /* Pathfinding Sweep for lower commits */
        @keyframes sweep {
            0%   { filter: brightness(0.8) saturate(0.8); transform: scale(1); }
            50%  { filter: brightness(1.8) saturate(1.5); transform: scale(1.15); }
            100% { filter: brightness(0.8) saturate(0.8); transform: scale(1); }
        }

        /* Intense Pulse for highest commits */
        @keyframes pulse-red {
            0%   { fill: #aa0000; filter: drop-shadow(0 0 2px #ff0000); transform: scale(1); }
            50%  { fill: #ff0000; filter: drop-shadow(0 0 10px #ff0000); transform: scale(1.25); }
            100% { fill: #aa0000; filter: drop-shadow(0 0 2px #ff0000); transform: scale(1); }
        }
        
        .lvl-4 {
            fill: #ff0000;
        }
    </style>
    <rect width="100%" height="100%" fill="#0D1117" rx="10"/>
    <g transform="translate(10, 10)">
    <rect x="0" y="0" width="12" height="12" class="cell lvl-0" style="animation: sweep 3.5s infinite 0.0s;"/>
<rect x="0" y="16" width="12" height="12" class="cell lvl-0" style="animation: sweep 3.5s infinite 0.02s;"/>
<rect x="0" y="32" width="12" height="12" class="cell lvl-0" style="animation: sweep 3.5s infinite 0.04s;"/>
<rect x="0" y="48" width="12" height="12" class="cell lvl-0" style="animation: sweep 3.5s infinite 0.06s;"/>
<rect x="0" y="64" width="12" height="12" class="cell lvl-0" style="animation: sweep 3.5s infinite 0.08s;"/>
<rect x="0" y="80" width="12" height="12" class="cell lvl-0" style="animation: sweep 3.5s infinite 0.1s;"/>
<rect x="0" y="96" width="12" height="12" class="cell lvl-0" style="animation: sweep 3.5s infinite 0.12s;"/>
<rect x="16" y="0" width="12" height="12" class="cell lvl-0" style="animation: sweep 3.5s infinite 0.08s;"/>
<rect x="16" y="16" width="12" height="12" class="cell lvl-0" style="animation: sweep 3.5s infinite 0.1s;"/>
<rect x="16" y="32" width="12" height="12" class="cell lvl-0" style="animation: sweep 3.5s infinite 0.12s;"/>
<rect x="16" y="48" width="12" height="12" class="cell lvl-0" style="animation: sweep 3.5s infinite 0.14s;"/>
<rect x="16" y="64" width="12" height="12" class="cell lvl-0" style="animation: sweep 3.5s infinite 0.16s;"/>
<rect x="16" y="80" width="12" height="12" class="cell lvl-0" style="animation: sweep 3.5s infinite 0.18s;"/>
<rect x="16" y="96" width="12" height="12" class="cell lvl-0" style="animation: sweep 3.5s infinite 0.2s;"/>
<rect x="32" y="0" width="12" height="12" class="cell lvl-0" style="animation: sweep 3.5s infinite 0.16s;"/>
<rect x="32" y="16" width="12" height="12" class="cell lvl-0" style="animation: sweep 3.5s infinite 0.18s;"/>
<rect x="32" y="32" width="12" height="12" class="cell lvl-0" style="animation: sweep 3.5s infinite 0.2s;"/>
<rect x="32" y="48" width="12" height="12" class="cell lvl-0" style="animation: sweep 3.5s infinite 0.22s;"/>
<rect x="32" y="64" width="12" height="12" class="cell lvl-0" style="animation: sweep 3.5s infinite 0.24s;"/>
<rect x="32" y="80" width="12" height="12" class="cell lvl-0" style="animation: sweep 3.5s infinite 0.26s;"/>
<rect x="32" y="96" width="12" height="12" class="cell lvl-0" style="animation: sweep 3.5s infinite 0.28s;"/>
<rect x="48" y="0" width="12" height="12" class="cell lvl-0" style="animation: sweep 3.5s infinite 0.24s;"/>
<rect x="48" y="16" width="12" height="12" class="cell lvl-0" style="animation: sweep 3.5s infinite 0.26s;"/>
<rect x="48" y="32" width="12" height="12" class="cell lvl-0" style="animation: sweep 3.5s infinite 0.27999999999999997s;"/>
<rect x="48" y="48" width="12" height="12" class="cell lvl-0" style="animation: sweep 3.5s infinite 0.3s;"/>
<rect x="48" y="64" width="12" height="12" class="cell lvl-0" style="animation: sweep 3.5s infinite 0.32s;"/>
<rect x="48" y="80" width="12" height="12" class="cell lvl-0" style="animation: sweep 3.5s infinite 0.33999999999999997s;"/>
<rect x="48" y="96" width="12" height="12" class="cell lvl-0" style="animation: sweep 3.5s infinite 0.36s;"/>
<rect x="64" y="0" width="12" height="12" class="cell lvl-0" style="animation: sweep 3.5s infinite 0.32s;"/>
<rect x="64" y="16" width="12" height="12" class="cell lvl-0" style="animation: sweep 3.5s infinite 0.34s;"/>
<rect x="64" y="32" width="12" height="12" class="cell lvl-0" style="animation: sweep 3.5s infinite 0.36s;"/>
<rect x="64" y="48" width="12" height="12" class="cell lvl-0" style="animation: sweep 3.5s infinite 0.38s;"/>
<rect x="64" y="64" width="12" height="12" class="cell lvl-0" style="animation: sweep 3.5s infinite 0.4s;"/>
<rect x="64" y="80" width="12" height="12" class="cell lvl-0" style="animation: sweep 3.5s infinite 0.42000000000000004s;"/>
<rect x="64" y="96" width="12" height="12" class="cell lvl-0" style="animation: sweep 3.5s infinite 0.44s;"/>
<rect x="80" y="0" width="12" height="12" class="cell lvl-0" style="animation: sweep 3.5s infinite 0.4s;"/>
<rect x="80" y="16" width="12" height="12" class="cell lvl-0" style="animation: sweep 3.5s infinite 0.42000000000000004s;"/>
<rect x="80" y="32" width="12" height="12" class="cell lvl-0" style="animation: sweep 3.5s infinite 0.44s;"/>
<rect x="80" y="48" width="12" height="12" class="cell lvl-0" style="animation: sweep 3.5s infinite 0.46s;"/>
<rect x="80" y="64" width="12" height="12" class="cell lvl-0" style="animation: sweep 3.5s infinite 0.48000000000000004s;"/>
<rect x="80" y="80" width="12" height="12" class="cell lvl-0" style="animation: sweep 3.5s infinite 0.5s;"/>
<rect x="80" y="96" width="12" height="12" class="cell lvl-0" style="animation: sweep 3.5s infinite 0.52s;"/>
<rect x="96" y="0" width="12" height="12" class="cell lvl-0" style="animation: sweep 3.5s infinite 0.48s;"/>
<rect x="96" y="16" width="12" height="12" class="cell lvl-0" style="animation: sweep 3.5s infinite 0.5s;"/>
<rect x="96" y="32" width="12" height="12" class="cell lvl-0" style="animation: sweep 3.5s infinite 0.52s;"/>
<rect x="96" y="48" width="12" height="12" class="cell lvl-0" style="animation: sweep 3.5s infinite 0.54s;"/>
<rect x="96" y="64" width="12" height="12" class="cell lvl-0" style="animation: sweep 3.5s infinite 0.5599999999999999s;"/>
<rect x="96" y="80" width="12" height="12" class="cell lvl-0" style="animation: sweep 3.5s infinite 0.58s;"/>
<rect x="96" y="96" width="12" height="12" class="cell lvl-0" style="animation: sweep 3.5s infinite 0.6s;"/>
<rect x="112" y="0" width="12" height="12" class="cell lvl-0" style="animation: sweep 3.5s infinite 0.56s;"/>
<rect x="112" y="16" width="12" height="12" class="cell lvl-0" style="animation: sweep 3.5s infinite 0.5800000000000001s;"/>
<rect x="112" y="32" width="12" height="12" class="cell lvl-0" style="animation: sweep 3.5s infinite 0.6000000000000001s;"/>
<rect x="112" y="48" width="12" height="12" class="cell lvl-0" style="animation: sweep 3.5s infinite 0.6200000000000001s;"/>
<rect x="112" y="64" width="12" height="12" class="cell lvl-0" style="animation: sweep 3.5s infinite 0.64s;"/>
<rect x="112" y="80" width="12" height="12" class="cell lvl-4" style="animation: pulse-red 2s infinite 0.66s;"/>
<rect x="112" y="96" width="12" height="12" class="cell lvl-0" style="animation: sweep 3.5s infinite 0.68s;"/>
<rect x="128" y="0" width="12" height="12" class="cell lvl-0" style="animation: sweep 3.5s infinite 0.64s;"/>
<rect x="128" y="16" width="12" height="12" class="cell lvl-0" style="animation: sweep 3.5s infinite 0.66s;"/>
<rect x="128" y="32" width="12" height="12" class="cell lvl-0" style="animation: sweep 3.5s infinite 0.68s;"/>
<rect x="128" y="48" width="12" height="12" class="cell lvl-0" style="animation: sweep 3.5s infinite 0.7s;"/>
<rect x="128" y="64" width="12" height="12" class="cell lvl-0" style="animation: sweep 3.5s infinite 0.72s;"/>
<rect x="128" y="80" width="12" height="12" class="cell lvl-0" style="animation: sweep 3.5s infinite 0.74s;"/>
<rect x="128" y="96" width="12" height="12" class="cell lvl-0" style="animation: sweep 3.5s infinite 0.76s;"/>
<rect x="144" y="0" width="12" height="12" class="cell lvl-0" style="animation: sweep 3.5s infinite 0.72s;"/>
<rect x="144" y="16" width="12" height="12" class="cell lvl-0" style="animation: sweep 3.5s infinite 0.74s;"/>
<rect x="144" y="32" width="12" height="12" class="cell lvl-0" style="animation: sweep 3.5s infinite 0.76s;"/>
<rect x="144" y="48" width="12" height="12" class="cell lvl-0" style="animation: sweep 3.5s infinite 0.78s;"/>
<rect x="144" y="64" width="12" height="12" class="cell lvl-0" style="animation: sweep 3.5s infinite 0.7999999999999999s;"/>
<rect x="144" y="80" width="12" height="12" class="cell lvl-0" style="animation: sweep 3.5s infinite 0.82s;"/>
<rect x="144" y="96" width="12" height="12" class="cell lvl-0" style="animation: sweep 3.5s infinite 0.84s;"/>
<rect x="160" y="0" width="12" height="12" class="cell lvl-0" style="animation: sweep 3.5s infinite 0.8s;"/>
<rect x="160" y="16" width="12" height="12" class="cell lvl-0" style="animation: sweep 3.5s infinite 0.8200000000000001s;"/>
<rect x="160" y="32" width="12" height="12" class="cell lvl-0" style="animation: sweep 3.5s infinite 0.8400000000000001s;"/>
<rect x="160" y="48" width="12" height="12" class="cell lvl-0" style="animation: sweep 3.5s infinite 0.8600000000000001s;"/>
<rect x="160" y="64" width="12" height="12" class="cell lvl-0" style="animation: sweep 3.5s infinite 0.88s;"/>
<rect x="160" y="80" width="12" height="12" class="cell lvl-0" style="animation: sweep 3.5s infinite 0.9s;"/>
<rect x="160" y="96" width="12" height="12" class="cell lvl-0" style="animation: sweep 3.5s infinite 0.92s;"/>
<rect x="176" y="0" width="12" height="12" class="cell lvl-0" style="animation: sweep 3.5s infinite 0.88s;"/>
<rect x="176" y="16" width="12" height="12" class="cell lvl-0" style="animation: sweep 3.5s infinite 0.9s;"/>
<rect x="176" y="32" width="12" height="12" class="cell lvl-0" style="animation: sweep 3.5s infinite 0.92s;"/>
<rect x="176" y="48" width="12" height="12" class="cell lvl-0" style="animation: sweep 3.5s infinite 0.94s;"/>
<rect x="176" y="64" width="12" height="12" class="cell lvl-0" style="animation: sweep 3.5s infinite 0.96s;"/>
<rect x="176" y="80" width="12" height="12" class="cell lvl-0" style="animation: sweep 3.5s infinite 0.98s;"/>
<rect x="176" y="96" width="12" height="12" class="cell lvl-0" style="animation: sweep 3.5s infinite 1.0s;"/>
<rect x="192" y="0" width="12" height="12" class="cell lvl-0" style="animation: sweep 3.5s infinite 0.96s;"/>
<rect x="192" y="16" width="12" height="12" class="cell lvl-0" style="animation: sweep 3.5s infinite 0.98s;"/>
<rect x="192" y="32" width="12" height="12" class="cell lvl-0" style="animation: sweep 3.5s infinite 1.0s;"/>
<rect x="192" y="48" width="12" height="12" class="cell lvl-0" style="animation: sweep 3.5s infinite 1.02s;"/>
<rect x="192" y="64" width="12" height="12" class="cell lvl-0" style="animation: sweep 3.5s infinite 1.04s;"/>
<rect x="192" y="80" width="12" height="12" class="cell lvl-0" style="animation: sweep 3.5s infinite 1.06s;"/>
<rect x="192" y="96" width="12" height="12" class="cell lvl-0" style="animation: sweep 3.5s infinite 1.08s;"/>
<rect x="208" y="0" width="12" height="12" class="cell lvl-0" style="animation: sweep 3.5s infinite 1.04s;"/>
<rect x="208" y="16" width="12" height="12" class="cell lvl-0" style="animation: sweep 3.5s infinite 1.06s;"/>
<rect x="208" y="32" width="12" height="12" class="cell lvl-0" style="animation: sweep 3.5s infinite 1.08s;"/>
<rect x="208" y="48" width="12" height="12" class="cell lvl-0" style="animation: sweep 3.5s infinite 1.1s;"/>
<rect x="208" y="64" width="12" height="12" class="cell lvl-0" style="animation: sweep 3.5s infinite 1.12s;"/>
<rect x="208" y="80" width="12" height="12" class="cell lvl-0" style="animation: sweep 3.5s infinite 1.1400000000000001s;"/>
<rect x="208" y="96" width="12" height="12" class="cell lvl-0" style="animation: sweep 3.5s infinite 1.1600000000000001s;"/>
<rect x="224" y="0" width="12" height="12" class="cell lvl-0" style="animation: sweep 3.5s infinite 1.12s;"/>
<rect x="224" y="16" width="12" height="12" class="cell lvl-0" style="animation: sweep 3.5s infinite 1.1400000000000001s;"/>
<rect x="224" y="32" width="12" height="12" class="cell lvl-0" style="animation: sweep 3.5s infinite 1.1600000000000001s;"/>
<rect x="224" y="48" width="12" height="12" class="cell lvl-0" style="animation: sweep 3.5s infinite 1.1800000000000002s;"/>
<rect x="224" y="64" width="12" height="12" class="cell lvl-0" style="animation: sweep 3.5s infinite 1.2000000000000002s;"/>
<rect x="224" y="80" width="12" height="12" class="cell lvl-0" style="animation: sweep 3.5s infinite 1.2200000000000002s;"/>
<rect x="224" y="96" width="12" height="12" class="cell lvl-0" style="animation: sweep 3.5s infinite 1.2400000000000002s;"/>
<rect x="240" y="0" width="12" height="12" class="cell lvl-0" style="animation: sweep 3.5s infinite 1.2s;"/>
<rect x="240" y="16" width="12" height="12" class="cell lvl-1" style="animation: sweep 3.5s infinite 1.22s;"/>
<rect x="240" y="32" width="12" height="12" class="cell lvl-0" style="animation: sweep 3.5s infinite 1.24s;"/>
<rect x="240" y="48" width="12" height="12" class="cell lvl-0" style="animation: sweep 3.5s infinite 1.26s;"/>
<rect x="240" y="64" width="12" height="12" class="cell lvl-0" style="animation: sweep 3.5s infinite 1.28s;"/>
<rect x="240" y="80" width="12" height="12" class="cell lvl-0" style="animation: sweep 3.5s infinite 1.3s;"/>
<rect x="240" y="96" width="12" height="12" class="cell lvl-1" style="animation: sweep 3.5s infinite 1.3199999999999998s;"/>
<rect x="256" y="0" width="12" height="12" class="cell lvl-0" style="animation: sweep 3.5s infinite 1.28s;"/>
<rect x="256" y="16" width="12" height="12" class="cell lvl-0" style="animation: sweep 3.5s infinite 1.3s;"/>
<rect x="256" y="32" width="12" height="12" class="cell lvl-0" style="animation: sweep 3.5s infinite 1.32s;"/>
<rect x="256" y="48" width="12" height="12" class="cell lvl-0" style="animation: sweep 3.5s infinite 1.34s;"/>
<rect x="256" y="64" width="12" height="12" class="cell lvl-0" style="animation: sweep 3.5s infinite 1.36s;"/>
<rect x="256" y="80" width="12" height="12" class="cell lvl-1" style="animation: sweep 3.5s infinite 1.3800000000000001s;"/>
<rect x="256" y="96" width="12" height="12" class="cell lvl-0" style="animation: sweep 3.5s infinite 1.4s;"/>
<rect x="272" y="0" width="12" height="12" class="cell lvl-0" style="animation: sweep 3.5s infinite 1.36s;"/>
<rect x="272" y="16" width="12" height="12" class="cell lvl-0" style="animation: sweep 3.5s infinite 1.3800000000000001s;"/>
<rect x="272" y="32" width="12" height="12" class="cell lvl-0" style="animation: sweep 3.5s infinite 1.4000000000000001s;"/>
<rect x="272" y="48" width="12" height="12" class="cell lvl-0" style="animation: sweep 3.5s infinite 1.4200000000000002s;"/>
<rect x="272" y="64" width="12" height="12" class="cell lvl-0" style="animation: sweep 3.5s infinite 1.4400000000000002s;"/>
<rect x="272" y="80" width="12" height="12" class="cell lvl-1" style="animation: sweep 3.5s infinite 1.4600000000000002s;"/>
<rect x="272" y="96" width="12" height="12" class="cell lvl-0" style="animation: sweep 3.5s infinite 1.48s;"/>
<rect x="288" y="0" width="12" height="12" class="cell lvl-0" style="animation: sweep 3.5s infinite 1.44s;"/>
<rect x="288" y="16" width="12" height="12" class="cell lvl-3" style="animation: sweep 3.5s infinite 1.46s;"/>
<rect x="288" y="32" width="12" height="12" class="cell lvl-0" style="animation: sweep 3.5s infinite 1.48s;"/>
<rect x="288" y="48" width="12" height="12" class="cell lvl-1" style="animation: sweep 3.5s infinite 1.5s;"/>
<rect x="288" y="64" width="12" height="12" class="cell lvl-1" style="animation: sweep 3.5s infinite 1.52s;"/>
<rect x="288" y="80" width="12" height="12" class="cell lvl-0" style="animation: sweep 3.5s infinite 1.54s;"/>
<rect x="288" y="96" width="12" height="12" class="cell lvl-0" style="animation: sweep 3.5s infinite 1.56s;"/>
<rect x="304" y="0" width="12" height="12" class="cell lvl-0" style="animation: sweep 3.5s infinite 1.52s;"/>
<rect x="304" y="16" width="12" height="12" class="cell lvl-0" style="animation: sweep 3.5s infinite 1.54s;"/>
<rect x="304" y="32" width="12" height="12" class="cell lvl-1" style="animation: sweep 3.5s infinite 1.56s;"/>
<rect x="304" y="48" width="12" height="12" class="cell lvl-0" style="animation: sweep 3.5s infinite 1.58s;"/>
<rect x="304" y="64" width="12" height="12" class="cell lvl-3" style="animation: sweep 3.5s infinite 1.6s;"/>
<rect x="304" y="80" width="12" height="12" class="cell lvl-0" style="animation: sweep 3.5s infinite 1.62s;"/>
<rect x="304" y="96" width="12" height="12" class="cell lvl-0" style="animation: sweep 3.5s infinite 1.6400000000000001s;"/>
<rect x="320" y="0" width="12" height="12" class="cell lvl-0" style="animation: sweep 3.5s infinite 1.6s;"/>
<rect x="320" y="16" width="12" height="12" class="cell lvl-0" style="animation: sweep 3.5s infinite 1.62s;"/>
<rect x="320" y="32" width="12" height="12" class="cell lvl-1" style="animation: sweep 3.5s infinite 1.6400000000000001s;"/>
<rect x="320" y="48" width="12" height="12" class="cell lvl-0" style="animation: sweep 3.5s infinite 1.6600000000000001s;"/>
<rect x="320" y="64" width="12" height="12" class="cell lvl-1" style="animation: sweep 3.5s infinite 1.6800000000000002s;"/>
<rect x="320" y="80" width="12" height="12" class="cell lvl-0" style="animation: sweep 3.5s infinite 1.7000000000000002s;"/>
<rect x="320" y="96" width="12" height="12" class="cell lvl-0" style="animation: sweep 3.5s infinite 1.7200000000000002s;"/>
<rect x="336" y="0" width="12" height="12" class="cell lvl-0" style="animation: sweep 3.5s infinite 1.68s;"/>
<rect x="336" y="16" width="12" height="12" class="cell lvl-0" style="animation: sweep 3.5s infinite 1.7s;"/>
<rect x="336" y="32" width="12" height="12" class="cell lvl-0" style="animation: sweep 3.5s infinite 1.72s;"/>
<rect x="336" y="48" width="12" height="12" class="cell lvl-0" style="animation: sweep 3.5s infinite 1.74s;"/>
<rect x="336" y="64" width="12" height="12" class="cell lvl-0" style="animation: sweep 3.5s infinite 1.76s;"/>
<rect x="336" y="80" width="12" height="12" class="cell lvl-1" style="animation: sweep 3.5s infinite 1.78s;"/>
<rect x="336" y="96" width="12" height="12" class="cell lvl-0" style="animation: sweep 3.5s infinite 1.7999999999999998s;"/>
<rect x="352" y="0" width="12" height="12" class="cell lvl-0" style="animation: sweep 3.5s infinite 1.76s;"/>
<rect x="352" y="16" width="12" height="12" class="cell lvl-0" style="animation: sweep 3.5s infinite 1.78s;"/>
<rect x="352" y="32" width="12" height="12" class="cell lvl-0" style="animation: sweep 3.5s infinite 1.8s;"/>
<rect x="352" y="48" width="12" height="12" class="cell lvl-0" style="animation: sweep 3.5s infinite 1.82s;"/>
<rect x="352" y="64" width="12" height="12" class="cell lvl-0" style="animation: sweep 3.5s infinite 1.84s;"/>
<rect x="352" y="80" width="12" height="12" class="cell lvl-0" style="animation: sweep 3.5s infinite 1.86s;"/>
<rect x="352" y="96" width="12" height="12" class="cell lvl-0" style="animation: sweep 3.5s infinite 1.88s;"/>
<rect x="368" y="0" width="12" height="12" class="cell lvl-0" style="animation: sweep 3.5s infinite 1.84s;"/>
<rect x="368" y="16" width="12" height="12" class="cell lvl-0" style="animation: sweep 3.5s infinite 1.86s;"/>
<rect x="368" y="32" width="12" height="12" class="cell lvl-0" style="animation: sweep 3.5s infinite 1.8800000000000001s;"/>
<rect x="368" y="48" width="12" height="12" class="cell lvl-0" style="animation: sweep 3.5s infinite 1.9000000000000001s;"/>
<rect x="368" y="64" width="12" height="12" class="cell lvl-0" style="animation: sweep 3.5s infinite 1.9200000000000002s;"/>
<rect x="368" y="80" width="12" height="12" class="cell lvl-0" style="animation: sweep 3.5s infinite 1.9400000000000002s;"/>
<rect x="368" y="96" width="12" height="12" class="cell lvl-0" style="animation: sweep 3.5s infinite 1.96s;"/>
<rect x="384" y="0" width="12" height="12" class="cell lvl-0" style="animation: sweep 3.5s infinite 1.92s;"/>
<rect x="384" y="16" width="12" height="12" class="cell lvl-2" style="animation: sweep 3.5s infinite 1.94s;"/>
<rect x="384" y="32" width="12" height="12" class="cell lvl-1" style="animation: sweep 3.5s infinite 1.96s;"/>
<rect x="384" y="48" width="12" height="12" class="cell lvl-0" style="animation: sweep 3.5s infinite 1.98s;"/>
<rect x="384" y="64" width="12" height="12" class="cell lvl-0" style="animation: sweep 3.5s infinite 2.0s;"/>
<rect x="384" y="80" width="12" height="12" class="cell lvl-0" style="animation: sweep 3.5s infinite 2.02s;"/>
<rect x="384" y="96" width="12" height="12" class="cell lvl-0" style="animation: sweep 3.5s infinite 2.04s;"/>
<rect x="400" y="0" width="12" height="12" class="cell lvl-1" style="animation: sweep 3.5s infinite 2.0s;"/>
<rect x="400" y="16" width="12" height="12" class="cell lvl-0" style="animation: sweep 3.5s infinite 2.02s;"/>
<rect x="400" y="32" width="12" height="12" class="cell lvl-0" style="animation: sweep 3.5s infinite 2.04s;"/>
<rect x="400" y="48" width="12" height="12" class="cell lvl-0" style="animation: sweep 3.5s infinite 2.06s;"/>
<rect x="400" y="64" width="12" height="12" class="cell lvl-1" style="animation: sweep 3.5s infinite 2.08s;"/>
<rect x="400" y="80" width="12" height="12" class="cell lvl-0" style="animation: sweep 3.5s infinite 2.1s;"/>
<rect x="400" y="96" width="12" height="12" class="cell lvl-0" style="animation: sweep 3.5s infinite 2.12s;"/>
<rect x="416" y="0" width="12" height="12" class="cell lvl-0" style="animation: sweep 3.5s infinite 2.08s;"/>
<rect x="416" y="16" width="12" height="12" class="cell lvl-0" style="animation: sweep 3.5s infinite 2.1s;"/>
<rect x="416" y="32" width="12" height="12" class="cell lvl-0" style="animation: sweep 3.5s infinite 2.12s;"/>
<rect x="416" y="48" width="12" height="12" class="cell lvl-3" style="animation: sweep 3.5s infinite 2.14s;"/>
<rect x="416" y="64" width="12" height="12" class="cell lvl-0" style="animation: sweep 3.5s infinite 2.16s;"/>
<rect x="416" y="80" width="12" height="12" class="cell lvl-0" style="animation: sweep 3.5s infinite 2.18s;"/>
<rect x="416" y="96" width="12" height="12" class="cell lvl-1" style="animation: sweep 3.5s infinite 2.2s;"/>
<rect x="432" y="0" width="12" height="12" class="cell lvl-0" style="animation: sweep 3.5s infinite 2.16s;"/>
<rect x="432" y="16" width="12" height="12" class="cell lvl-0" style="animation: sweep 3.5s infinite 2.18s;"/>
<rect x="432" y="32" width="12" height="12" class="cell lvl-0" style="animation: sweep 3.5s infinite 2.2s;"/>
<rect x="432" y="48" width="12" height="12" class="cell lvl-0" style="animation: sweep 3.5s infinite 2.22s;"/>
<rect x="432" y="64" width="12" height="12" class="cell lvl-0" style="animation: sweep 3.5s infinite 2.24s;"/>
<rect x="432" y="80" width="12" height="12" class="cell lvl-2" style="animation: sweep 3.5s infinite 2.2600000000000002s;"/>
<rect x="432" y="96" width="12" height="12" class="cell lvl-0" style="animation: sweep 3.5s infinite 2.2800000000000002s;"/>
<rect x="448" y="0" width="12" height="12" class="cell lvl-0" style="animation: sweep 3.5s infinite 2.24s;"/>
<rect x="448" y="16" width="12" height="12" class="cell lvl-0" style="animation: sweep 3.5s infinite 2.2600000000000002s;"/>
<rect x="448" y="32" width="12" height="12" class="cell lvl-1" style="animation: sweep 3.5s infinite 2.2800000000000002s;"/>
<rect x="448" y="48" width="12" height="12" class="cell lvl-0" style="animation: sweep 3.5s infinite 2.3000000000000003s;"/>
<rect x="448" y="64" width="12" height="12" class="cell lvl-0" style="animation: sweep 3.5s infinite 2.3200000000000003s;"/>
<rect x="448" y="80" width="12" height="12" class="cell lvl-0" style="animation: sweep 3.5s infinite 2.3400000000000003s;"/>
<rect x="448" y="96" width="12" height="12" class="cell lvl-0" style="animation: sweep 3.5s infinite 2.3600000000000003s;"/>
<rect x="464" y="0" width="12" height="12" class="cell lvl-0" style="animation: sweep 3.5s infinite 2.32s;"/>
<rect x="464" y="16" width="12" height="12" class="cell lvl-0" style="animation: sweep 3.5s infinite 2.34s;"/>
<rect x="464" y="32" width="12" height="12" class="cell lvl-0" style="animation: sweep 3.5s infinite 2.36s;"/>
<rect x="464" y="48" width="12" height="12" class="cell lvl-0" style="animation: sweep 3.5s infinite 2.38s;"/>
<rect x="464" y="64" width="12" height="12" class="cell lvl-1" style="animation: sweep 3.5s infinite 2.4s;"/>
<rect x="464" y="80" width="12" height="12" class="cell lvl-0" style="animation: sweep 3.5s infinite 2.42s;"/>
<rect x="464" y="96" width="12" height="12" class="cell lvl-0" style="animation: sweep 3.5s infinite 2.44s;"/>
<rect x="480" y="0" width="12" height="12" class="cell lvl-0" style="animation: sweep 3.5s infinite 2.4s;"/>
<rect x="480" y="16" width="12" height="12" class="cell lvl-0" style="animation: sweep 3.5s infinite 2.42s;"/>
<rect x="480" y="32" width="12" height="12" class="cell lvl-0" style="animation: sweep 3.5s infinite 2.44s;"/>
<rect x="480" y="48" width="12" height="12" class="cell lvl-0" style="animation: sweep 3.5s infinite 2.46s;"/>
<rect x="480" y="64" width="12" height="12" class="cell lvl-0" style="animation: sweep 3.5s infinite 2.48s;"/>
<rect x="480" y="80" width="12" height="12" class="cell lvl-1" style="animation: sweep 3.5s infinite 2.5s;"/>
<rect x="480" y="96" width="12" height="12" class="cell lvl-0" style="animation: sweep 3.5s infinite 2.52s;"/>
<rect x="496" y="0" width="12" height="12" class="cell lvl-1" style="animation: sweep 3.5s infinite 2.48s;"/>
<rect x="496" y="16" width="12" height="12" class="cell lvl-0" style="animation: sweep 3.5s infinite 2.5s;"/>
<rect x="496" y="32" width="12" height="12" class="cell lvl-0" style="animation: sweep 3.5s infinite 2.52s;"/>
<rect x="496" y="48" width="12" height="12" class="cell lvl-0" style="animation: sweep 3.5s infinite 2.54s;"/>
<rect x="496" y="64" width="12" height="12" class="cell lvl-0" style="animation: sweep 3.5s infinite 2.56s;"/>
<rect x="496" y="80" width="12" height="12" class="cell lvl-1" style="animation: sweep 3.5s infinite 2.58s;"/>
<rect x="496" y="96" width="12" height="12" class="cell lvl-0" style="animation: sweep 3.5s infinite 2.6s;"/>
<rect x="512" y="0" width="12" height="12" class="cell lvl-0" style="animation: sweep 3.5s infinite 2.56s;"/>
<rect x="512" y="16" width="12" height="12" class="cell lvl-0" style="animation: sweep 3.5s infinite 2.58s;"/>
<rect x="512" y="32" width="12" height="12" class="cell lvl-0" style="animation: sweep 3.5s infinite 2.6s;"/>
<rect x="512" y="48" width="12" height="12" class="cell lvl-2" style="animation: sweep 3.5s infinite 2.62s;"/>
<rect x="512" y="64" width="12" height="12" class="cell lvl-0" style="animation: sweep 3.5s infinite 2.64s;"/>
<rect x="512" y="80" width="12" height="12" class="cell lvl-0" style="animation: sweep 3.5s infinite 2.66s;"/>
<rect x="512" y="96" width="12" height="12" class="cell lvl-0" style="animation: sweep 3.5s infinite 2.68s;"/>
<rect x="528" y="0" width="12" height="12" class="cell lvl-0" style="animation: sweep 3.5s infinite 2.64s;"/>
<rect x="528" y="16" width="12" height="12" class="cell lvl-0" style="animation: sweep 3.5s infinite 2.66s;"/>
<rect x="528" y="32" width="12" height="12" class="cell lvl-0" style="animation: sweep 3.5s infinite 2.68s;"/>
<rect x="528" y="48" width="12" height="12" class="cell lvl-0" style="animation: sweep 3.5s infinite 2.7s;"/>
<rect x="528" y="64" width="12" height="12" class="cell lvl-2" style="animation: sweep 3.5s infinite 2.72s;"/>
<rect x="528" y="80" width="12" height="12" class="cell lvl-1" style="animation: sweep 3.5s infinite 2.74s;"/>
<rect x="528" y="96" width="12" height="12" class="cell lvl-0" style="animation: sweep 3.5s infinite 2.7600000000000002s;"/>
<rect x="544" y="0" width="12" height="12" class="cell lvl-0" style="animation: sweep 3.5s infinite 2.72s;"/>
<rect x="544" y="16" width="12" height="12" class="cell lvl-0" style="animation: sweep 3.5s infinite 2.74s;"/>
<rect x="544" y="32" width="12" height="12" class="cell lvl-3" style="animation: sweep 3.5s infinite 2.7600000000000002s;"/>
<rect x="544" y="48" width="12" height="12" class="cell lvl-4" style="animation: pulse-red 2s infinite 2.7800000000000002s;"/>
<rect x="544" y="64" width="12" height="12" class="cell lvl-4" style="animation: pulse-red 2s infinite 2.8000000000000003s;"/>
<rect x="544" y="80" width="12" height="12" class="cell lvl-0" style="animation: sweep 3.5s infinite 2.8200000000000003s;"/>
<rect x="544" y="96" width="12" height="12" class="cell lvl-3" style="animation: sweep 3.5s infinite 2.8400000000000003s;"/>
<rect x="560" y="0" width="12" height="12" class="cell lvl-1" style="animation: sweep 3.5s infinite 2.8000000000000003s;"/>
<rect x="560" y="16" width="12" height="12" class="cell lvl-0" style="animation: sweep 3.5s infinite 2.8200000000000003s;"/>
<rect x="560" y="32" width="12" height="12" class="cell lvl-2" style="animation: sweep 3.5s infinite 2.8400000000000003s;"/>
<rect x="560" y="48" width="12" height="12" class="cell lvl-0" style="animation: sweep 3.5s infinite 2.8600000000000003s;"/>
<rect x="560" y="64" width="12" height="12" class="cell lvl-0" style="animation: sweep 3.5s infinite 2.8800000000000003s;"/>
<rect x="560" y="80" width="12" height="12" class="cell lvl-0" style="animation: sweep 3.5s infinite 2.9000000000000004s;"/>
<rect x="560" y="96" width="12" height="12" class="cell lvl-0" style="animation: sweep 3.5s infinite 2.9200000000000004s;"/>
<rect x="576" y="0" width="12" height="12" class="cell lvl-0" style="animation: sweep 3.5s infinite 2.88s;"/>
<rect x="576" y="16" width="12" height="12" class="cell lvl-0" style="animation: sweep 3.5s infinite 2.9s;"/>
<rect x="576" y="32" width="12" height="12" class="cell lvl-0" style="animation: sweep 3.5s infinite 2.92s;"/>
<rect x="576" y="48" width="12" height="12" class="cell lvl-1" style="animation: sweep 3.5s infinite 2.94s;"/>
<rect x="576" y="64" width="12" height="12" class="cell lvl-2" style="animation: sweep 3.5s infinite 2.96s;"/>
<rect x="576" y="80" width="12" height="12" class="cell lvl-3" style="animation: sweep 3.5s infinite 2.98s;"/>
<rect x="576" y="96" width="12" height="12" class="cell lvl-0" style="animation: sweep 3.5s infinite 3.0s;"/>
<rect x="592" y="0" width="12" height="12" class="cell lvl-1" style="animation: sweep 3.5s infinite 2.96s;"/>
<rect x="592" y="16" width="12" height="12" class="cell lvl-3" style="animation: sweep 3.5s infinite 2.98s;"/>
<rect x="592" y="32" width="12" height="12" class="cell lvl-0" style="animation: sweep 3.5s infinite 3.0s;"/>
<rect x="592" y="48" width="12" height="12" class="cell lvl-0" style="animation: sweep 3.5s infinite 3.02s;"/>
<rect x="592" y="64" width="12" height="12" class="cell lvl-0" style="animation: sweep 3.5s infinite 3.04s;"/>
<rect x="592" y="80" width="12" height="12" class="cell lvl-1" style="animation: sweep 3.5s infinite 3.06s;"/>
<rect x="592" y="96" width="12" height="12" class="cell lvl-4" style="animation: pulse-red 2s infinite 3.08s;"/>
<rect x="608" y="0" width="12" height="12" class="cell lvl-0" style="animation: sweep 3.5s infinite 3.04s;"/>
<rect x="608" y="16" width="12" height="12" class="cell lvl-0" style="animation: sweep 3.5s infinite 3.06s;"/>
<rect x="608" y="32" width="12" height="12" class="cell lvl-0" style="animation: sweep 3.5s infinite 3.08s;"/>
<rect x="608" y="48" width="12" height="12" class="cell lvl-0" style="animation: sweep 3.5s infinite 3.1s;"/>
<rect x="608" y="64" width="12" height="12" class="cell lvl-0" style="animation: sweep 3.5s infinite 3.12s;"/>
<rect x="608" y="80" width="12" height="12" class="cell lvl-2" style="animation: sweep 3.5s infinite 3.14s;"/>
<rect x="608" y="96" width="12" height="12" class="cell lvl-1" style="animation: sweep 3.5s infinite 3.16s;"/>
<rect x="624" y="0" width="12" height="12" class="cell lvl-0" style="animation: sweep 3.5s infinite 3.12s;"/>
<rect x="624" y="16" width="12" height="12" class="cell lvl-0" style="animation: sweep 3.5s infinite 3.14s;"/>
<rect x="624" y="32" width="12" height="12" class="cell lvl-0" style="animation: sweep 3.5s infinite 3.16s;"/>
<rect x="624" y="48" width="12" height="12" class="cell lvl-0" style="animation: sweep 3.5s infinite 3.18s;"/>
<rect x="624" y="64" width="12" height="12" class="cell lvl-0" style="animation: sweep 3.5s infinite 3.2s;"/>
<rect x="624" y="80" width="12" height="12" class="cell lvl-0" style="animation: sweep 3.5s infinite 3.22s;"/>
<rect x="624" y="96" width="12" height="12" class="cell lvl-1" style="animation: sweep 3.5s infinite 3.24s;"/>
<rect x="640" y="0" width="12" height="12" class="cell lvl-1" style="animation: sweep 3.5s infinite 3.2s;"/>
<rect x="640" y="16" width="12" height="12" class="cell lvl-0" style="animation: sweep 3.5s infinite 3.22s;"/>
<rect x="640" y="32" width="12" height="12" class="cell lvl-0" style="animation: sweep 3.5s infinite 3.24s;"/>
<rect x="640" y="48" width="12" height="12" class="cell lvl-0" style="animation: sweep 3.5s infinite 3.2600000000000002s;"/>
<rect x="640" y="64" width="12" height="12" class="cell lvl-0" style="animation: sweep 3.5s infinite 3.2800000000000002s;"/>
<rect x="640" y="80" width="12" height="12" class="cell lvl-1" style="animation: sweep 3.5s infinite 3.3000000000000003s;"/>
<rect x="640" y="96" width="12" height="12" class="cell lvl-0" style="animation: sweep 3.5s infinite 3.3200000000000003s;"/>
<rect x="656" y="0" width="12" height="12" class="cell lvl-0" style="animation: sweep 3.5s infinite 3.2800000000000002s;"/>
<rect x="656" y="16" width="12" height="12" class="cell lvl-2" style="animation: sweep 3.5s infinite 3.3000000000000003s;"/>
<rect x="656" y="32" width="12" height="12" class="cell lvl-2" style="animation: sweep 3.5s infinite 3.3200000000000003s;"/>
<rect x="656" y="48" width="12" height="12" class="cell lvl-0" style="animation: sweep 3.5s infinite 3.3400000000000003s;"/>
<rect x="656" y="64" width="12" height="12" class="cell lvl-1" style="animation: sweep 3.5s infinite 3.3600000000000003s;"/>
<rect x="656" y="80" width="12" height="12" class="cell lvl-0" style="animation: sweep 3.5s infinite 3.3800000000000003s;"/>
<rect x="656" y="96" width="12" height="12" class="cell lvl-0" style="animation: sweep 3.5s infinite 3.4000000000000004s;"/>
<rect x="672" y="0" width="12" height="12" class="cell lvl-0" style="animation: sweep 3.5s infinite 3.36s;"/>
<rect x="672" y="16" width="12" height="12" class="cell lvl-0" style="animation: sweep 3.5s infinite 3.38s;"/>
<rect x="672" y="32" width="12" height="12" class="cell lvl-1" style="animation: sweep 3.5s infinite 3.4s;"/>
<rect x="672" y="48" width="12" height="12" class="cell lvl-0" style="animation: sweep 3.5s infinite 3.42s;"/>
<rect x="672" y="64" width="12" height="12" class="cell lvl-4" style="animation: pulse-red 2s infinite 3.44s;"/>
<rect x="672" y="80" width="12" height="12" class="cell lvl-0" style="animation: sweep 3.5s infinite 3.46s;"/>
<rect x="672" y="96" width="12" height="12" class="cell lvl-3" style="animation: sweep 3.5s infinite 3.48s;"/>
<rect x="688" y="0" width="12" height="12" class="cell lvl-2" style="animation: sweep 3.5s infinite 3.44s;"/>
<rect x="688" y="16" width="12" height="12" class="cell lvl-3" style="animation: sweep 3.5s infinite 3.46s;"/>
<rect x="688" y="32" width="12" height="12" class="cell lvl-1" style="animation: sweep 3.5s infinite 3.48s;"/>
<rect x="688" y="48" width="12" height="12" class="cell lvl-4" style="animation: pulse-red 2s infinite 3.5s;"/>
<rect x="688" y="64" width="12" height="12" class="cell lvl-0" style="animation: sweep 3.5s infinite 3.52s;"/>
<rect x="688" y="80" width="12" height="12" class="cell lvl-0" style="animation: sweep 3.5s infinite 3.54s;"/>
<rect x="688" y="96" width="12" height="12" class="cell lvl-0" style="animation: sweep 3.5s infinite 3.56s;"/>
<rect x="704" y="0" width="12" height="12" class="cell lvl-0" style="animation: sweep 3.5s infinite 3.52s;"/>
<rect x="704" y="16" width="12" height="12" class="cell lvl-1" style="animation: sweep 3.5s infinite 3.54s;"/>
<rect x="704" y="32" width="12" height="12" class="cell lvl-1" style="animation: sweep 3.5s infinite 3.56s;"/>
<rect x="704" y="48" width="12" height="12" class="cell lvl-3" style="animation: sweep 3.5s infinite 3.58s;"/>
<rect x="704" y="64" width="12" height="12" class="cell lvl-0" style="animation: sweep 3.5s infinite 3.6s;"/>
<rect x="704" y="80" width="12" height="12" class="cell lvl-0" style="animation: sweep 3.5s infinite 3.62s;"/>
<rect x="704" y="96" width="12" height="12" class="cell lvl-0" style="animation: sweep 3.5s infinite 3.64s;"/>
<rect x="720" y="0" width="12" height="12" class="cell lvl-0" style="animation: sweep 3.5s infinite 3.6s;"/>
<rect x="720" y="16" width="12" height="12" class="cell lvl-0" style="animation: sweep 3.5s infinite 3.62s;"/>
<rect x="720" y="32" width="12" height="12" class="cell lvl-0" style="animation: sweep 3.5s infinite 3.64s;"/>
<rect x="720" y="48" width="12" height="12" class="cell lvl-0" style="animation: sweep 3.5s infinite 3.66s;"/>
<rect x="720" y="64" width="12" height="12" class="cell lvl-1" style="animation: sweep 3.5s infinite 3.68s;"/>
<rect x="720" y="80" width="12" height="12" class="cell lvl-0" style="animation: sweep 3.5s infinite 3.7s;"/>
<rect x="720" y="96" width="12" height="12" class="cell lvl-0" style="animation: sweep 3.5s infinite 3.72s;"/>
<rect x="736" y="0" width="12" height="12" class="cell lvl-0" style="animation: sweep 3.5s infinite 3.68s;"/>
<rect x="736" y="16" width="12" height="12" class="cell lvl-0" style="animation: sweep 3.5s infinite 3.7s;"/>
<rect x="736" y="32" width="12" height="12" class="cell lvl-0" style="animation: sweep 3.5s infinite 3.72s;"/>
<rect x="736" y="48" width="12" height="12" class="cell lvl-0" style="animation: sweep 3.5s infinite 3.74s;"/>
<rect x="736" y="64" width="12" height="12" class="cell lvl-0" style="animation: sweep 3.5s infinite 3.7600000000000002s;"/>
<rect x="736" y="80" width="12" height="12" class="cell lvl-0" style="animation: sweep 3.5s infinite 3.7800000000000002s;"/>
<rect x="736" y="96" width="12" height="12" class="cell lvl-0" style="animation: sweep 3.5s infinite 3.8000000000000003s;"/>
<rect x="752" y="0" width="12" height="12" class="cell lvl-3" style="animation: sweep 3.5s infinite 3.7600000000000002s;"/>
<rect x="752" y="16" width="12" height="12" class="cell lvl-0" style="animation: sweep 3.5s infinite 3.7800000000000002s;"/>
<rect x="752" y="32" width="12" height="12" class="cell lvl-3" style="animation: sweep 3.5s infinite 3.8000000000000003s;"/>
<rect x="752" y="48" width="12" height="12" class="cell lvl-0" style="animation: sweep 3.5s infinite 3.8200000000000003s;"/>
<rect x="752" y="64" width="12" height="12" class="cell lvl-0" style="animation: sweep 3.5s infinite 3.8400000000000003s;"/>
<rect x="752" y="80" width="12" height="12" class="cell lvl-0" style="animation: sweep 3.5s infinite 3.8600000000000003s;"/>
<rect x="752" y="96" width="12" height="12" class="cell lvl-0" style="animation: sweep 3.5s infinite 3.8800000000000003s;"/>
<rect x="768" y="0" width="12" height="12" class="cell lvl-0" style="animation: sweep 3.5s infinite 3.84s;"/>
<rect x="768" y="16" width="12" height="12" class="cell lvl-0" style="animation: sweep 3.5s infinite 3.86s;"/>
<rect x="768" y="32" width="12" height="12" class="cell lvl-0" style="animation: sweep 3.5s infinite 3.88s;"/>
<rect x="768" y="48" width="12" height="12" class="cell lvl-1" style="animation: sweep 3.5s infinite 3.9s;"/>
<rect x="768" y="64" width="12" height="12" class="cell lvl-0" style="animation: sweep 3.5s infinite 3.92s;"/>
<rect x="768" y="80" width="12" height="12" class="cell lvl-0" style="animation: sweep 3.5s infinite 3.94s;"/>
<rect x="768" y="96" width="12" height="12" class="cell lvl-0" style="animation: sweep 3.5s infinite 3.96s;"/>
<rect x="784" y="0" width="12" height="12" class="cell lvl-0" style="animation: sweep 3.5s infinite 3.92s;"/>
<rect x="784" y="16" width="12" height="12" class="cell lvl-0" style="animation: sweep 3.5s infinite 3.94s;"/>
<rect x="784" y="32" width="12" height="12" class="cell lvl-1" style="animation: sweep 3.5s infinite 3.96s;"/>
<rect x="784" y="48" width="12" height="12" class="cell lvl-0" style="animation: sweep 3.5s infinite 3.98s;"/>
<rect x="784" y="64" width="12" height="12" class="cell lvl-0" style="animation: sweep 3.5s infinite 4.0s;"/>
<rect x="784" y="80" width="12" height="12" class="cell lvl-0" style="animation: sweep 3.5s infinite 4.02s;"/>
<rect x="784" y="96" width="12" height="12" class="cell lvl-0" style="animation: sweep 3.5s infinite 4.04s;"/>
<rect x="800" y="0" width="12" height="12" class="cell lvl-3" style="animation: sweep 3.5s infinite 4.0s;"/>
<rect x="800" y="16" width="12" height="12" class="cell lvl-2" style="animation: sweep 3.5s infinite 4.02s;"/>
<rect x="800" y="32" width="12" height="12" class="cell lvl-2" style="animation: sweep 3.5s infinite 4.04s;"/>
<rect x="800" y="48" width="12" height="12" class="cell lvl-2" style="animation: sweep 3.5s infinite 4.06s;"/>
<rect x="800" y="64" width="12" height="12" class="cell lvl-1" style="animation: sweep 3.5s infinite 4.08s;"/>
<rect x="800" y="80" width="12" height="12" class="cell lvl-2" style="animation: sweep 3.5s infinite 4.1s;"/>
<rect x="800" y="96" width="12" height="12" class="cell lvl-4" style="animation: pulse-red 2s infinite 4.12s;"/>
<rect x="816" y="0" width="12" height="12" class="cell lvl-3" style="animation: sweep 3.5s infinite 4.08s;"/>
<rect x="816" y="16" width="12" height="12" class="cell lvl-0" style="animation: sweep 3.5s infinite 4.1s;"/>
<rect x="816" y="32" width="12" height="12" class="cell lvl-0" style="animation: sweep 3.5s infinite 4.12s;"/>
<rect x="816" y="48" width="12" height="12" class="cell lvl-0" style="animation: sweep 3.5s infinite 4.14s;"/>
<rect x="816" y="64" width="12" height="12" class="cell lvl-0" style="animation: sweep 3.5s infinite 4.16s;"/>
<rect x="816" y="80" width="12" height="12" class="cell lvl-0" style="animation: sweep 3.5s infinite 4.18s;"/>
<rect x="816" y="96" width="12" height="12" class="cell lvl-0" style="animation: sweep 3.5s infinite 4.2s;"/>
<rect x="832" y="0" width="12" height="12" class="cell lvl-0" style="animation: sweep 3.5s infinite 4.16s;"/>
<rect x="832" y="16" width="12" height="12" class="cell lvl-1" style="animation: sweep 3.5s infinite 4.18s;"/>
<rect x="832" y="32" width="12" height="12" class="cell lvl-1" style="animation: sweep 3.5s infinite 4.2s;"/>
<rect x="832" y="48" width="12" height="12" class="cell lvl-4" style="animation: pulse-red 2s infinite 4.22s;"/>
<rect x="832" y="64" width="12" height="12" class="cell lvl-2" style="animation: sweep 3.5s infinite 4.24s;"/>
<rect x="832" y="80" width="12" height="12" class="cell lvl-0" style="animation: sweep 3.5s infinite 4.26s;"/>
</g></svg>